<svg xmlns="http://www.w3.org/2000/svg" viewBox="0 0 100 100" width="100" height="100">
  <!-- Gradient definitions -->
  <defs>
    <linearGradient id="waterGradient" x1="0%" y1="0%" x2="0%" y2="100%">
      <stop offset="0%" style="stop-color:#4facfe;stop-opacity:1" />
      <stop offset="100%" style="stop-color:#00f2fe;stop-opacity:1" />
    </linearGradient>
    <linearGradient id="shadowGradient" x1="0%" y1="0%" x2="0%" y2="100%">
      <stop offset="0%" style="stop-color:#2980b9;stop-opacity:0.3" />
      <stop offset="100%" style="stop-color:#2980b9;stop-opacity:0.1" />
    </linearGradient>
    <radialGradient id="highlight" cx="30%" cy="30%" r="40%">
      <stop offset="0%" style="stop-color:#ffffff;stop-opacity:0.6" />
      <stop offset="100%" style="stop-color:#ffffff;stop-opacity:0" />
    </radialGradient>
  </defs>
  
  <!-- Main water drop shape -->
  <path d="M50 10 C30 30, 20 50, 20 65 C20 80, 32.5 90, 50 90 C67.5 90, 80 80, 80 65 C80 50, 70 30, 50 10 Z" 
        fill="url(#waterGradient)" 
        stroke="none"/>
  
  <!-- Shadow for depth -->
  <path d="M50 10 C30 30, 20 50, 20 65 C20 80, 32.5 90, 50 90 C67.5 90, 80 80, 80 65 C80 50, 70 30, 50 10 Z" 
        fill="url(#shadowGradient)" 
        stroke="none"
        transform="translate(2, 2)"/>
  
  <!-- Highlight for glossy effect -->
  <ellipse cx="42" cy="35" rx="12" ry="20" 
           fill="url(#highlight)" 
           opacity="0.7"/>
  
  <!-- Small water drops around main drop -->
  <circle cx="25" cy="25" r="3" fill="#4facfe" opacity="0.6"/>
  <circle cx="75" cy="30" r="2.5" fill="#00f2fe" opacity="0.5"/>
  <circle cx="30" cy="75" r="2" fill="#4facfe" opacity="0.4"/>
  <circle cx="70" cy="70" r="1.5" fill="#00f2fe" opacity="0.6"/>
  
  <!-- Ripple effect circles -->
  <circle cx="50" cy="65" r="8" fill="none" stroke="#ffffff" stroke-width="1" opacity="0.3"/>
  <circle cx="50" cy="65" r="12" fill="none" stroke="#ffffff" stroke-width="0.5" opacity="0.2"/>
</svg> 